<svg width="120" height="120" fill="none" xmlns="http://www.w3.org/2000/svg"><g filter="url(#filter0_d)"><circle cx="58" cy="58" r="50" fill="#D1D1D1"/></g><path fill-rule="evenodd" clip-rule="evenodd" d="M51 38h14a6 6 0 016 6v34H45V44a6 6 0 016-6zm-2 6v30h4v-2a2 2 0 012-2h6a2 2 0 012 2v2h4V44a2 2 0 00-2-2H51a2 2 0 00-2 2zm6 2h-2a2 2 0 100 4h2a2 2 0 100-4zm-2 6h2a2 2 0 110 4h-2a2 2 0 110-4zm2 6h-2a2 2 0 100 4h2a2 2 0 100-4zm-2 6h2a2 2 0 110 4h-2a2 2 0 110-4zm10-18h-2a2 2 0 100 4h2a2 2 0 100-4zm-2 6h2a2 2 0 110 4h-2a2 2 0 110-4zm2 6h-2a2 2 0 100 4h2a2 2 0 100-4zm-2 6h2a2 2 0 110 4h-2a2 2 0 110-4z" fill="#fff"/><defs><filter id="filter0_d" x="0" y="0" width="120" height="120" filterUnits="userSpaceOnUse" color-interpolation-filters="sRGB"><feFlood flood-opacity="0" result="BackgroundImageFix"/><feColorMatrix in="SourceAlpha" values="0 0 0 0 0 0 0 0 0 0 0 0 0 0 0 0 0 0 127 0"/><feOffset dx="2" dy="2"/><feGaussianBlur stdDeviation="5"/><feColorMatrix values="0 0 0 0 0 0 0 0 0 0 0 0 0 0 0 0 0 0 0.1 0"/><feBlend in2="BackgroundImageFix" result="effect1_dropShadow"/><feBlend in="SourceGraphic" in2="effect1_dropShadow" result="shape"/></filter></defs></svg>