<svg width="120" height="120" fill="none" xmlns="http://www.w3.org/2000/svg"><g filter="url(#filter0_d)"><circle cx="58" cy="58" r="50" fill="#D1D1D1"/></g><path fill-rule="evenodd" clip-rule="evenodd" d="M56 38c4.418 0 8 3.671 8 8.2v4.1c0 4.529-3.582 8.2-8 8.2s-8-3.671-8-8.2v-4.1c0-4.529 3.582-8.2 8-8.2zm-6.932 20.644a1.96 1.96 0 012.015.269c.574.459.86 1.2.745 1.938a2.038 2.038 0 01-1.294 1.605C47.798 63.561 46 66.27 46 69.284v3.567c0 1.132.895 2.05 2 2.05h16c1.105 0 2-.918 2-2.05v-3.376c0-3.112-1.875-5.902-4.712-7.01a2.037 2.037 0 01-1.316-1.59 2.077 2.077 0 01.725-1.949 1.96 1.96 0 012.015-.29C67.1 60.348 70 64.661 70 69.474v3.376c0 3.397-2.686 6.15-6 6.15H48c-3.314 0-6-2.753-6-6.15v-3.567c0-4.698 2.804-8.918 7.068-10.64zM52 46.2c0-2.264 1.79-4.1 4-4.1s4 1.836 4 4.1v4.1c0 2.264-1.79 4.1-4 4.1s-4-1.836-4-4.1v-4.1z" fill="#fff"/><defs><filter id="filter0_d" x="0" y="0" width="120" height="120" filterUnits="userSpaceOnUse" color-interpolation-filters="sRGB"><feFlood flood-opacity="0" result="BackgroundImageFix"/><feColorMatrix in="SourceAlpha" values="0 0 0 0 0 0 0 0 0 0 0 0 0 0 0 0 0 0 127 0"/><feOffset dx="2" dy="2"/><feGaussianBlur stdDeviation="5"/><feColorMatrix values="0 0 0 0 0 0 0 0 0 0 0 0 0 0 0 0 0 0 0.1 0"/><feBlend in2="BackgroundImageFix" result="effect1_dropShadow"/><feBlend in="SourceGraphic" in2="effect1_dropShadow" result="shape"/></filter></defs></svg>