<svg width="18" height="18" fill="none" xmlns="http://www.w3.org/2000/svg"><path fill-rule="evenodd" clip-rule="evenodd" d="M.382 17.836a.9.9 0 00.822.11l4.242-1.413a2.7 2.7 0 011.708 0l3.123 1.041a4.5 4.5 0 002.846 0l4.242-1.414A.9.9 0 0018 15.3V.9a.9.9 0 00-1.204-.847l-4.242 1.414a2.7 2.7 0 01-1.708 0L7.723.426a4.5 4.5 0 00-2.846 0L.635 1.839A.9.9 0 000 2.7v14.4a.9.9 0 00.382.737zm4.495-3.01L1.8 15.852V3.349l3.6-1.2v12.536a4.478 4.478 0 00-.523.14zM16.2 14.65V2.148l-3.077 1.026a4.495 4.495 0 01-.523.14v12.538l3.6-1.201zM10.8 3.315v12.537l-3.077-1.026a4.478 4.478 0 00-.523-.14V2.147l3.077 1.026c.171.057.346.104.523.14z" fill="#009ADE"/></svg>