<svg width="16" height="16" fill="none" xmlns="http://www.w3.org/2000/svg"><path fill-rule="evenodd" clip-rule="evenodd" d="M0 8a8 8 0 1016 0A8 8 0 000 8zm9.398-4.942c.27.557.48 1.14.626 1.742H5.976a8.627 8.627 0 01.626-1.742C7.105 2.054 7.642 1.6 8 1.6c.358 0 .895.454 1.398 1.458zM4.333 4.8H2.456A6.428 6.428 0 015.23 2.229c-.377.725-.684 1.597-.897 2.571zM1.6 8c0-.54.067-1.077.202-1.6H4.08a15.863 15.863 0 000 3.2H1.802A6.438 6.438 0 011.6 8zm12.598-1.6H11.92a15.858 15.858 0 010 3.2h2.278a6.438 6.438 0 000-3.2zM10.77 2.229A6.428 6.428 0 0113.544 4.8h-1.877c-.213-.974-.519-1.846-.897-2.571zM5.69 6.4a14.21 14.21 0 000 3.2h4.62c.12-1.063.12-2.137 0-3.2H5.69zm-3.234 4.8a6.428 6.428 0 002.774 2.571c-.378-.725-.684-1.597-.897-2.571H2.456zm9.211 0h1.877a6.428 6.428 0 01-2.774 2.571c.377-.725.684-1.597.897-2.571zm-5.691 0c.162.648.374 1.236.626 1.742C7.105 13.946 7.642 14.4 8 14.4c.358 0 .895-.454 1.398-1.458a8.627 8.627 0 00.626-1.742H5.976z" fill="#fff"/></svg>