<svg width="18" height="18" fill="none" xmlns="http://www.w3.org/2000/svg"><mask id="a" maskUnits="userSpaceOnUse" x="0" y="0" width="18" height="18"><path fill-rule="evenodd" clip-rule="evenodd" d="M0 0h18v18H0V0z" fill="#fff"/></mask><g mask="url(#a)"><path fill-rule="evenodd" clip-rule="evenodd" d="M2.23 7.285a5.04 5.04 0 015.034-5.049A5.04 5.04 0 0112.3 7.285a5.041 5.041 0 01-5.035 5.048 5.041 5.041 0 01-5.034-5.048m15.387 8.364l-4.23-4.444a7.266 7.266 0 001.142-3.92C14.53 3.26 11.277 0 7.264 0 3.252 0 0 3.261 0 7.285c0 4.023 3.252 7.285 7.264 7.285 1.57 0 3.02-.5 4.208-1.348l4.139 4.347a1.382 1.382 0 001.96.046c.554-.53.574-1.41.046-1.966" fill="#555"/></g></svg>