<svg width="12" height="16" fill="none" xmlns="http://www.w3.org/2000/svg"><path fill-rule="evenodd" clip-rule="evenodd" d="M5.6 0a3.2 3.2 0 013.2 3.2v1.6a3.2 3.2 0 01-6.4 0V3.2A3.2 3.2 0 015.6 0zM2.827 8.056a.8.8 0 11.587 1.488A2.863 2.863 0 001.6 12.208V13.6a.8.8 0 00.8.8h6.4a.8.8 0 00.8-.8v-1.318c0-1.214-.75-2.303-1.885-2.735a.8.8 0 11.57-1.494 4.526 4.526 0 012.915 4.23V13.6A2.4 2.4 0 018.8 16H2.4A2.4 2.4 0 010 13.6v-1.392a4.463 4.463 0 012.827-4.152zM4 3.2a1.6 1.6 0 113.2 0v1.6a1.6 1.6 0 11-3.2 0V3.2z" fill="#fff"/></svg>