<svg width="260" height="71" fill="none" xmlns="http://www.w3.org/2000/svg"><path fill-rule="evenodd" clip-rule="evenodd" d="M97.995 51.201c0-1.474-.482-2.613-1.435-3.408-.954-.795-2.29-1.196-4.016-1.196H86.65v13.21h3.441v-3.713h2.452c1.72 0 3.062-.43 4.016-1.286.959-.856 1.435-2.057 1.435-3.607zm-5.622 2.25h-2.286v-4.215h2.28c.757 0 1.337.178 1.752.527.41.35.617.866.617 1.55 0 .694-.202 1.226-.612 1.59-.404.365-.99.547-1.751.547zm24.04-3.678c-.637-1.018-1.513-1.818-2.627-2.406-1.114-.587-2.358-.881-3.737-.881-1.378 0-2.622.294-3.726.871-1.109.583-1.979 1.378-2.617 2.396-.642 1.018-.958 2.163-.958 3.434 0 1.271.321 2.42.958 3.454.638 1.028 1.514 1.839 2.628 2.431 1.114.593 2.352.887 3.715.887 1.374 0 2.623-.3 3.737-.887a6.647 6.647 0 002.627-2.43c.638-1.034.954-2.184.954-3.455 0-1.261-.316-2.396-.954-3.414zm-9.623 1.444a3.8 3.8 0 011.399-1.408 3.679 3.679 0 011.902-.512c.684 0 1.316.172 1.886.512a3.79 3.79 0 011.363 1.408c.332.597.503 1.26.503 1.99 0 .735-.166 1.398-.503 2.006a3.796 3.796 0 01-1.363 1.423 3.599 3.599 0 01-1.886.517 3.697 3.697 0 01-1.902-.517 3.806 3.806 0 01-1.399-1.423 3.96 3.96 0 01-.518-2.006c0-.73.171-1.393.518-1.99zm22.294 4.877h.104l2.01 3.723h3.892l-2.84-4.361c.799-.39 1.405-.947 1.825-1.661.419-.72.627-1.58.627-2.589 0-1.473-.487-2.613-1.467-3.408-.974-.8-2.358-1.2-4.151-1.2h-6.042v13.209h3.441v-3.713h2.601zm1.741-3.19c-.414.364-.995.546-1.741.546v-.005h-2.601v-4.209h2.601c.752 0 1.332.178 1.741.527.41.35.617.866.617 1.55 0 .694-.207 1.226-.617 1.59z" fill="#009ADE"/><path d="M147.134 49.297v10.515h-3.441V49.297h-4.037v-2.72h11.551v2.72h-4.073z" fill="#009ADE"/><path fill-rule="evenodd" clip-rule="evenodd" d="M157.172 59.807l.979-2.431v.005h5.908l.964 2.43h3.669l-5.695-13.214h-3.534l-5.825 13.21h3.534zm1.98-4.984l1.969-4.883 1.933 4.883h-3.902z" fill="#009ADE"/><path d="M182.975 57v2.812h-9.173V46.597h3.441v10.404h5.732z" fill="#009ADE"/><path fill-rule="evenodd" clip-rule="evenodd" d="M82.94 32.524v-.93l.54-.09c3.422-.564 3.81-.628 3.81-6.35V16.33l-.008-.24c-.122-4.26-.138-4.81-4.341-5.201v-.93h9.948c3.754 0 9.521 0 9.521 5.01 0 2.99-2.998 4.313-5.433 4.912v.068c3.326.699 6.95 2.621 6.95 6.571 0 5.51-5.965 6.009-10.079 6.009H82.941v-.005zm8.697-6.035c-.004 2.34-.01 4.737 3.067 4.737 2.533 0 4.28-1.728 4.28-4.28 0-3.782-3.493-6.073-7.346-5.773v5.316zm5.825-11.057c0 3.251-2.435 4.48-5.334 4.48h-.496v-8.63c3.03 0 5.83.468 5.83 4.15z" fill="#00447C"/><path d="M111.075 17.192l.527.498-.397 3.682.068.069c1.153-1.66 2.769-4.05 5.105-4.05 1.053 0 2.106.862 2.106 1.891 0 1.392-1.481 2.69-2.633 3.251-.527-.698-1.283-1.828-2.242-1.828-1.908 0-2.007 2.359-2.007 3.75v3.882c0 2.721 0 2.658 3.655 3.383v.798h-10.048v-.798c2.503-.662 2.503-.762 2.503-3.383v-5.11c0-2.322 0-1.791-1.976-3.252v-.53l5.339-2.253z" fill="#00447C"/><path fill-rule="evenodd" clip-rule="evenodd" d="M121.185 11.781c0 1.298 1.084 2.359 2.403 2.359s2.404-1.061 2.404-2.359c0-1.297-1.085-2.39-2.404-2.39s-2.403 1.093-2.403 2.39zm.388 9.563c.206.334.206.796.206 1.888v5.11c0 2.622 0 2.721-2.503 3.383v.799h8.921v-.799c-1.26-.36-1.893-.526-2.212-.936-.322-.415-.322-1.079-.322-2.446v-6.671l.131-3.982-.657-.498-5.334 2.258v.53c1.046.774 1.538.989 1.77 1.364zm22.882 5.869V9.13l-.595-.494-5.334 2.259v.53c1.091.78 1.6.992 1.837 1.373.207.333.207.796.207 1.879v3.183l-.392-.062c-1.189-.188-2.533-.4-3.987-.4-4.516 0-7.446 4.58-7.446 8.461 0 3.682 2.763 7.133 6.585 7.133 2.143 0 3.859-.993 5.24-2.521l-.099 2.62 7.112-1.528-.099-.798c-1.448.079-2.204.12-2.599-.237-.45-.407-.43-1.333-.43-3.314zm-8.004-8.43c2.571 0 4.119 2.458 4.119 5.179h-.005v5.405c-.855.793-1.58 1.16-2.831 1.16-3.389 0-4.906-3.65-4.906-6.502 0-2.153.99-5.242 3.623-5.242zm29.485 1.492h-.011v-1.828h-5.333c-1.387-.73-2.936-1.061-4.516-1.061-3.264 0-6.819 1.728-6.819 5.41 0 2.159 1.548 3.719 3.493 4.449-.327.28-.763.578-1.217.887-1.102.751-2.308 1.573-2.308 2.396 0 1.723 2.211 2.52 3.593 2.752v.068c-1.679.662-4.479 1.954-4.479 4.013 0 2.784 3.556 3.582 5.699 3.582 3.988 0 11.366-2.29 11.366-7.133 0-3.966-4.319-3.799-7.895-3.66-2.529.098-4.686.182-4.686-1.22 0-.465.346-.927.633-1.31l.06-.081c.756.137 1.512.268 2.305.268 3.264 0 6.621-1.96 6.621-5.541 0-.862-.166-1.46-.625-2.19l4.108.198h.011zm-11.695 13.042c-1.022.499-2.007 1.56-2.007 2.72 0 2.222 3.029 3.02 4.776 3.02 2.075 0 5.302-.798 5.302-3.35 0-2.222-1.846-2.522-3.691-2.522l-4.38.132zm1.846-6.566c-2.138 0-2.93-2.857-2.93-4.549 0-1.428.589-3.75 2.434-3.75 2.211 0 2.967 2.82 2.967 4.549 0 1.528-.563 3.75-2.471 3.75zm19.838 3.346c-3.983 0-6.027-3.414-5.928-7.033h9.75c-.13-3.55-2.138-5.673-5.829-5.673-4.249 0-7.675 3.882-7.675 7.963 0 4.312 3.165 7.632 7.315 7.632 2.899 0 5.204-1.96 6.784-4.181l-.824-.599c-1.022 1.16-2.013 1.891-3.593 1.891zm-2.7-11.508c1.741 0 2.268 1.79 2.434 3.183l-5.464.168c.329-1.492 1.184-3.351 3.03-3.351z" fill="#00447C"/><path d="M189.289 25.154c0 4.512-.199 6.04 5.104 6.44v.93h-13.801v-.93c3.921-.662 4.348-.43 4.348-6.44V16.33c0-4.98-.297-4.88-4.348-5.441v-.93h10.245c3.097 0 9.719 0 9.719 5.904 0 5.042-5.105 6.44-9.124 7.232l-.23-.96c2.732-.731 4.411-2.454 4.411-5.411 0-3.819-2.669-5.442-6.324-5.442v13.872z" fill="#00447C"/><path fill-rule="evenodd" clip-rule="evenodd" d="M209.649 17.391c-4.708 0-8.759 3.089-8.759 7.963 0 4.843 4.15 7.632 8.691 7.632 4.615 0 8.567-3.083 8.567-7.863 0-4.68-3.984-7.732-8.499-7.732zm-.266 1.192c3.295 0 4.416 4.181 4.416 6.97 0 2.39-.855 6.24-3.957 6.235-3.327 0-4.609-4.144-4.609-6.833 0-2.521 1.22-6.372 4.15-6.372zm11.408-6.802c0 1.298 1.085 2.359 2.404 2.359s2.404-1.061 2.404-2.359c0-1.297-1.085-2.39-2.404-2.39s-2.404 1.093-2.404 2.39zm.389 9.563c.206.334.206.796.206 1.888h-.005v5.11c0 2.622 0 2.721-2.503 3.383v.799h8.926v-.799c-1.26-.36-1.894-.526-2.212-.936-.322-.415-.322-1.079-.322-2.446v-6.671l.131-3.982-.657-.498-5.334 2.258v.53c1.046.774 1.538.989 1.77 1.364z" fill="#00447C"/><path d="M235.291 28.337c0 2.721 0 2.658 2.305 3.383v.798h-8.697v-.798c2.503-.662 2.503-.762 2.503-3.383v-5.11c0-2.322 0-1.791-1.976-3.252v-.53l5.333-2.259.657.5-.365 2.09c1.976-1.33 3.921-2.39 5.996-2.39 1.283 0 2.701.698 3.457 1.76.923 1.292.855 3.02.855 4.548v4.643c0 2.621 0 2.721 2.503 3.383v.798h-8.697v-.798c2.305-.73 2.305-.662 2.305-3.383v-4.08c0-2.622-.595-4.613-3.723-4.613-.892 0-1.71.331-2.471.762v7.931h.015zm24.287 3.42c-.955.33-1.976.63-2.998.861a14.45 14.45 0 01-3.129.363c-3.227 0-3.227-2.39-3.227-4.975v-8.094h-2.534v-.798l5.798-5.043h.625v4.013h5.47v1.828h-5.475v5.804c0 3.75-.099 5.143 4.182 5.143h1.282v.898h.006z" fill="#00447C"/><path d="M48.693 32.029l12.054-20.95C54.34 4.416 45.335.271 35.361.271c-1.648 0-3.27.115-4.86.334l18.192 31.424z" fill="#ECD925"/><path d="M45.012 45.335h24.177a35.215 35.215 0 001.392-9.839 35.08 35.08 0 00-7.451-21.664L45.012 45.335z" fill="#EEE04A"/><path d="M31.763 48.781l12.2 20.882c10.934-2.748 19.834-10.6 24.026-20.882H31.763z" fill="#F0E77B"/><path d="M39.026 22.211L26.914 1.293C15.908 4 6.934 11.883 2.727 22.211h36.3z" fill="#E0CC00"/><path d="M22.044 38.984L10.021 59.975c6.408 6.627 15.386 10.752 25.33 10.752a35.52 35.52 0 005.025-.36L22.044 38.984z" fill="#F0E78F"/><path d="M25.71 25.658H1.528a35.215 35.215 0 00-1.392 9.838c0 8.202 2.8 15.746 7.497 21.732l18.077-31.57z" fill="#F0EA9B"/></svg>