<svg width="18" height="18" viewBox="0 0 18 18" fill="none" xmlns="http://www.w3.org/2000/svg">
<path fill-rule="evenodd" clip-rule="evenodd" d="M0.38226 17.8359C0.621872 18.0044 0.928505 18.0458 1.2042 17.9468L5.4459 16.5329C6.00029 16.348 6.59971 16.348 7.1541 16.5329L10.2771 17.5742C11.2007 17.882 12.1993 17.882 13.1229 17.5742L17.3646 16.1603C17.7423 16.0441 18.0001 15.6951 18 15.2999V0.899874C18 0.606939 17.8573 0.332352 17.6177 0.163836C17.3781 -0.00467971 17.0715 -0.0460379 16.7958 0.0529742L12.5541 1.46687C11.9997 1.65174 11.4003 1.65174 10.8459 1.46687L7.7229 0.425574C6.79928 0.11773 5.80072 0.11773 4.8771 0.425574L0.6354 1.83947C0.257667 1.95566 -7.68613e-05 2.30468 1.71935e-08 2.69987V17.0999C4.2834e-05 17.3928 0.142649 17.6674 0.38226 17.8359ZM4.8771 14.8256L1.8 15.8516V3.34877L5.4 2.14817V14.6852C5.22304 14.7214 5.04842 14.7683 4.8771 14.8256ZM16.2 14.651V2.14817L13.1229 3.17417C12.9516 3.23143 12.777 3.27831 12.6 3.31457V15.8516L16.2 14.651ZM10.8 3.31457V15.8516L7.7229 14.8256C7.55158 14.7683 7.37696 14.7214 7.2 14.6852V2.14817L10.2771 3.17417C10.4484 3.23143 10.623 3.27831 10.8 3.31457Z" fill="#009ADE"/>
</svg>
