<svg width="11" height="18" viewBox="0 0 11 18" fill="none" xmlns="http://www.w3.org/2000/svg">
<path fill-rule="evenodd" clip-rule="evenodd" d="M2.7 0H8.1C9.59117 0 10.8 1.20883 10.8 2.7V15.3C10.8 16.7912 9.59117 18 8.1 18H2.7C1.20883 18 0 16.7912 0 15.3V2.7C0 1.20883 1.20883 0 2.7 0ZM2.7 1.8C2.20294 1.8 1.8 2.20294 1.8 2.7V15.3C1.8 15.7971 2.20294 16.2 2.7 16.2H8.1C8.59706 16.2 9 15.7971 9 15.3V2.7C9 2.20294 8.59706 1.8 8.1 1.8H2.7ZM4.5 14.4C4.5 14.8971 4.90294 15.3 5.4 15.3C5.89706 15.3 6.3 14.8971 6.3 14.4C6.3 13.9029 5.89706 13.5 5.4 13.5C4.90294 13.5 4.5 13.9029 4.5 14.4Z" fill="white"/>
</svg>
