<svg width="20" height="16" viewBox="0 0 20 16" fill="none" xmlns="http://www.w3.org/2000/svg">
<path fill-rule="evenodd" clip-rule="evenodd" d="M17 0H3C1.34315 0 0 1.34315 0 3V13C0 14.6569 1.34315 16 3 16H17C18.6569 16 20 14.6569 20 13V3C20 1.34315 18.6569 0 17 0ZM2 3C2 2.44772 2.44772 2 3 2H17C17.5523 2 18 2.44772 18 3V5H2V3ZM13.874 7H18V13C18 13.5523 17.5523 14 17 14H3C2.44772 14 2 13.5523 2 13V7H6.126C6.5835 8.76521 8.17646 9.99794 10 9.99794C11.8235 9.99794 13.4165 8.76521 13.874 7ZM10 7.99991C9.2855 7.99991 8.62528 7.61875 8.268 7H11.732C11.3747 7.61875 10.7145 7.99991 10 7.99991Z" fill="#009ADE"/>
</svg>
