<svg width="15" height="11" viewBox="0 0 15 11" fill="none" xmlns="http://www.w3.org/2000/svg">
<path fill-rule="evenodd" clip-rule="evenodd" d="M13.1955 0H1.46617C0.656425 0 0 0.656425 0 1.46617V8.79699C0 9.60673 0.656425 10.2632 1.46617 10.2632H13.1955C14.0052 10.2632 14.6617 9.60673 14.6617 8.79699V1.46617C14.6617 0.656425 14.0052 0 13.1955 0ZM2.63763 1.46617L6.85066 5.21955C7.12856 5.467 7.54776 5.467 7.82566 5.21955L12.0394 1.46617H2.63763ZM13.1955 2.39938L8.80139 6.31477C7.96746 7.05798 6.70885 7.05798 5.87493 6.31477L1.46617 2.38545V8.79699H13.1955V2.39938Z" fill="white"/>
</svg>
