<svg width="16" height="16" viewBox="0 0 16 16" fill="none" xmlns="http://www.w3.org/2000/svg">
<path fill-rule="evenodd" clip-rule="evenodd" d="M0 8C0 12.4184 3.5816 16 8 16C12.4184 16 16 12.4184 16 8C16 3.5816 12.4184 0 8 0C3.5816 0 0 3.5816 0 8ZM9.3976 3.0584C9.6684 3.61473 9.87841 4.19864 10.024 4.8H5.976C6.1384 4.152 6.3504 3.564 6.6024 3.0584C7.1048 2.0544 7.6416 1.6 8 1.6C8.3576 1.6 8.8952 2.0544 9.3976 3.0584ZM4.3328 4.8H2.456C3.10177 3.68419 4.06814 2.78834 5.2296 2.2288C4.8528 2.9544 4.5456 3.8264 4.3328 4.8ZM1.6 8C1.59959 7.46031 1.66732 6.92272 1.8016 6.4H4.08C3.97214 7.46394 3.97214 8.53606 4.08 9.6H1.8016C1.6704 9.088 1.6 8.552 1.6 8ZM14.1984 6.4H11.92C12.0279 7.46394 12.0279 8.53606 11.92 9.6H14.1984C14.3296 9.088 14.4 8.552 14.4 8C14.4 7.448 14.3296 6.912 14.1984 6.4ZM10.7704 2.2288C11.9319 2.78834 12.8982 3.68419 13.544 4.8H11.6672C11.4544 3.8264 11.148 2.9544 10.7704 2.2288ZM5.6896 6.4C5.62966 6.93122 5.59975 7.46541 5.6 8C5.6 8.548 5.6304 9.084 5.6896 9.6H10.3104C10.4309 8.53674 10.4309 7.46326 10.3104 6.4H5.6896ZM2.456 11.2C3.10177 12.3158 4.06814 13.2117 5.2296 13.7712C4.852 13.0456 4.5456 12.1736 4.3328 11.2H2.456ZM11.6672 11.2H13.544C12.8982 12.3158 11.9319 13.2117 10.7704 13.7712C11.1472 13.0456 11.4544 12.1736 11.6672 11.2ZM5.976 11.2C6.1384 11.848 6.3504 12.436 6.6024 12.9416C7.1048 13.9456 7.6424 14.4 8 14.4C8.3584 14.4 8.8952 13.9456 9.3976 12.9416C9.6496 12.436 9.8616 11.848 10.024 11.2H5.976Z" fill="white"/>
</svg>
