<svg width="18" height="18" viewBox="0 0 18 18" fill="none" xmlns="http://www.w3.org/2000/svg">
<mask id="mask0" mask-type="alpha" maskUnits="userSpaceOnUse" x="0" y="0" width="18" height="18">
<path fill-rule="evenodd" clip-rule="evenodd" d="M0 0H18V18H0V0Z" fill="white"/>
</mask>
<g mask="url(#mask0)">
<path fill-rule="evenodd" clip-rule="evenodd" d="M2.23025 7.28463C2.23025 4.49641 4.48389 2.23647 7.26435 2.23647C10.0448 2.23647 12.2985 4.49641 12.2985 7.28463C12.2985 10.0728 10.0448 12.3334 7.26435 12.3334C4.48389 12.3334 2.23025 10.0728 2.23025 7.28463M17.617 15.6487L13.3863 11.2052C14.1087 10.0728 14.5293 8.72807 14.5293 7.28463C14.5293 3.26114 11.2766 0 7.26435 0C3.25207 0 0 3.26114 0 7.28463C0 11.3081 3.25207 14.5699 7.26435 14.5699C8.83338 14.5699 10.2848 14.0693 11.4722 13.2215L15.6105 17.5693C16.1397 18.1252 17.017 18.1457 17.5714 17.615C18.1246 17.0849 18.145 16.2046 17.617 15.6487" fill="#555555"/>
</g>
</svg>
