<svg width="12" height="16" viewBox="0 0 12 16" fill="none" xmlns="http://www.w3.org/2000/svg">
<path fill-rule="evenodd" clip-rule="evenodd" d="M5.6 0C7.36731 0 8.8 1.43269 8.8 3.2V4.8C8.8 6.56731 7.36731 8 5.6 8C3.83269 8 2.4 6.56731 2.4 4.8V3.2C2.4 1.43269 3.83269 0 5.6 0ZM2.8272 8.056C3.09498 7.94175 3.40368 7.98198 3.63323 8.16106C3.86278 8.34013 3.97692 8.62977 3.93126 8.9173C3.88559 9.20483 3.68733 9.44485 3.4136 9.544C2.31926 9.97518 1.59995 11.0318 1.6 12.208V13.6C1.6 14.0418 1.95817 14.4 2.4 14.4H8.8C9.24183 14.4 9.6 14.0418 9.6 13.6V12.2824C9.60019 11.0679 8.85018 9.97948 7.7152 9.5472C7.43975 9.45161 7.23812 9.21374 7.18894 8.92636C7.13976 8.63897 7.25082 8.34759 7.47881 8.16585C7.7068 7.98411 8.01561 7.94079 8.2848 8.0528C10.0399 8.72133 11.1999 10.4043 11.2 12.2824V13.6C11.2 14.9255 10.1255 16 8.8 16H2.4C1.07452 16 0 14.9255 0 13.6V12.208C0.000225267 10.3747 1.1215 8.728 2.8272 8.056ZM4 3.2C4 2.31634 4.71634 1.6 5.6 1.6C6.48366 1.6 7.2 2.31634 7.2 3.2V4.8C7.2 5.68366 6.48366 6.4 5.6 6.4C4.71634 6.4 4 5.68366 4 4.8V3.2Z" fill="white"/>
</svg>
