<svg width="260" height="71" viewBox="0 0 260 71" fill="none" xmlns="http://www.w3.org/2000/svg">
<path fill-rule="evenodd" clip-rule="evenodd" d="M97.9954 51.2014C97.9954 49.7275 97.5135 48.5879 96.5599 47.7927C95.6064 46.9975 94.2694 46.5974 92.5436 46.5974H86.6514V59.8068H90.0924V56.0942H92.5436C94.2642 56.0942 95.6064 55.6636 96.5599 54.8077C97.5187 53.9517 97.9954 52.7513 97.9954 51.2014ZM92.3726 53.4503H90.0924H90.0872V49.2362H92.3674C93.1241 49.2362 93.7045 49.4135 94.1191 49.763C94.5285 50.1125 94.7358 50.6291 94.7358 51.3129C94.7358 52.0068 94.5337 52.5386 94.1242 52.9032C93.72 53.2679 93.1344 53.4503 92.3726 53.4503Z" fill="#009ADE"/>
<path fill-rule="evenodd" clip-rule="evenodd" d="M116.413 49.7731C115.776 48.7551 114.9 47.9548 113.786 47.3673C112.672 46.7797 111.428 46.486 110.049 46.486C108.671 46.486 107.427 46.7797 106.323 47.3571C105.214 47.9396 104.344 48.7348 103.706 49.7529C103.064 50.7709 102.748 51.9156 102.748 53.1869C102.748 54.4582 103.069 55.6079 103.706 56.6412C104.344 57.6694 105.22 58.4797 106.334 59.0723C107.448 59.6649 108.686 59.9587 110.049 59.9587C111.423 59.9587 112.672 59.6599 113.786 59.0723C114.905 58.4848 115.776 57.6744 116.413 56.6412C117.051 55.6079 117.367 54.4582 117.367 53.1869C117.367 51.9257 117.051 50.7912 116.413 49.7731ZM106.79 51.2166C107.137 50.619 107.603 50.1479 108.189 49.8086C108.775 49.4642 109.407 49.297 110.091 49.297C110.775 49.297 111.407 49.4692 111.977 49.8086C112.547 50.153 113.003 50.619 113.34 51.2166C113.672 51.8143 113.843 52.4778 113.843 53.2071C113.843 53.9416 113.677 54.6051 113.34 55.2129C113.003 55.8156 112.547 56.2917 111.977 56.6361C111.402 56.9805 110.775 57.1527 110.091 57.1527C109.412 57.1527 108.775 56.9805 108.189 56.6361C107.603 56.2917 107.137 55.8206 106.79 55.2129C106.443 54.6051 106.272 53.9416 106.272 53.2071C106.272 52.4778 106.443 51.8143 106.79 51.2166Z" fill="#009ADE"/>
<path fill-rule="evenodd" clip-rule="evenodd" d="M129.084 56.0942H129.188L131.198 59.8169H135.09L132.25 55.456C133.049 55.066 133.655 54.5088 134.075 53.7947C134.494 53.0755 134.702 52.2144 134.702 51.2065C134.702 49.7326 134.215 48.593 133.235 47.7978C132.261 46.9975 130.877 46.5974 129.084 46.5974H123.042V59.8068H126.483V56.0942H129.084ZM130.825 52.9032C130.411 53.2679 129.83 53.4503 129.084 53.4503V53.4452H126.483V49.2362H129.084C129.836 49.2362 130.416 49.4135 130.825 49.763C131.235 50.1125 131.442 50.6291 131.442 51.3129C131.442 52.0068 131.235 52.5386 130.825 52.9032Z" fill="#009ADE"/>
<path d="M147.134 49.297V59.8118H143.693V49.297H139.656V46.5771H151.207V49.297H147.134Z" fill="#009ADE"/>
<path fill-rule="evenodd" clip-rule="evenodd" d="M157.172 59.8068L158.151 57.3756V57.3806H164.059L165.023 59.8118H168.692L162.997 46.5974H159.463L153.638 59.8068H157.172ZM159.152 54.8229L161.121 49.9403L163.054 54.8229H159.152Z" fill="#009ADE"/>
<path d="M182.975 57.0008V59.8118H173.802V46.5974H177.243V57.0008H182.975Z" fill="#009ADE"/>
<path fill-rule="evenodd" clip-rule="evenodd" d="M82.9409 32.5236V31.5939C83.1282 31.5623 83.3076 31.5327 83.4793 31.5044L83.4795 31.5044C86.9017 30.94 87.2893 30.876 87.2893 25.1543V16.3301L87.2824 16.0905C87.1598 11.8294 87.144 11.2804 82.9409 10.8885V9.95879H92.889C96.6431 9.95879 102.41 9.95879 102.41 14.9697C102.41 17.9584 99.4116 19.282 96.9767 19.8808V19.9491C100.303 20.6477 103.927 22.5701 103.927 26.52C103.927 32.0299 97.9622 32.5289 93.8484 32.5289H82.9409V32.5236ZM91.6373 26.4893V26.4896C91.6326 28.8282 91.6278 31.2263 94.7035 31.2263C97.2374 31.2263 98.9841 29.4982 98.9841 26.9455C98.9841 23.1636 95.4908 20.8735 91.6377 21.1729V26.2154C91.6377 26.3065 91.6375 26.3978 91.6373 26.4893ZM97.4616 15.4319C97.4616 18.6832 95.0267 19.9123 92.1278 19.9123H91.6325V11.2824C94.6618 11.2824 97.4616 11.7499 97.4616 15.4319Z" fill="#00447C"/>
<path d="M111.075 17.1915L111.602 17.6905L111.205 21.3725L111.273 21.4408C112.426 19.781 114.042 17.3911 116.378 17.3911C117.431 17.3911 118.484 18.2525 118.484 19.282C118.484 20.6739 117.003 21.9713 115.851 22.5333C115.324 21.8347 114.568 20.7055 113.609 20.7055C111.701 20.7055 111.602 23.0638 111.602 24.4558V28.3374C111.602 31.0582 111.602 30.9952 115.257 31.72V32.5184H105.209V31.72C107.712 31.0582 107.712 30.9584 107.712 28.3374V23.2267C107.712 20.9051 107.712 21.4356 105.736 19.9754V19.4448L111.075 17.1915Z" fill="#00447C"/>
<path fill-rule="evenodd" clip-rule="evenodd" d="M121.185 11.7814C121.185 13.0788 122.269 14.1398 123.588 14.1398C124.907 14.1398 125.992 13.0788 125.992 11.7814C125.992 10.484 124.907 9.39151 123.588 9.39151C122.269 9.39151 121.185 10.484 121.185 11.7814ZM121.573 21.3445C121.779 21.6785 121.779 22.1395 121.779 23.2319V28.3426C121.779 30.9636 121.779 31.0634 119.276 31.7253V32.5236H128.197V31.7253C126.937 31.3647 126.304 31.1991 125.985 30.7889C125.663 30.3744 125.663 29.7102 125.663 28.3426V21.6719L125.794 17.6905L125.137 17.1915L119.803 19.4501V19.9806C120.849 20.7537 121.341 20.9688 121.573 21.3445Z" fill="#00447C"/>
<path fill-rule="evenodd" clip-rule="evenodd" d="M144.455 27.2133V9.12889L143.86 8.63515L138.526 10.8937V11.4242C139.617 12.2034 140.126 12.4157 140.363 12.797C140.57 13.1303 140.57 13.5927 140.57 14.6756V17.8586C140.441 17.8385 140.311 17.8179 140.178 17.7969C138.989 17.6089 137.645 17.3964 136.191 17.3964C131.675 17.3964 128.745 21.9766 128.745 25.8582C128.745 29.5402 131.508 32.9911 135.33 32.9911C137.473 32.9911 139.189 31.9984 140.57 30.4699L140.471 33.0909L147.583 31.5624L147.484 30.764C146.036 30.8426 145.28 30.8844 144.885 30.5271C144.435 30.1198 144.455 29.1941 144.455 27.2133ZM136.451 18.783C139.022 18.783 140.57 21.2412 140.57 23.962H140.565V29.3669C139.71 30.16 138.985 30.5277 137.734 30.5277C134.345 30.5277 132.828 26.8772 132.828 24.025C132.828 21.8715 133.818 18.783 136.451 18.783Z" fill="#00447C"/>
<path fill-rule="evenodd" clip-rule="evenodd" d="M165.936 20.2747L165.925 20.2742V18.4469H160.592C159.205 17.7168 157.656 17.3859 156.076 17.3859C152.812 17.3859 149.257 19.1139 149.257 22.796C149.257 24.9547 150.805 26.5147 152.75 27.2448C152.423 27.5252 151.987 27.8226 151.533 28.132L151.533 28.132C150.431 28.8833 149.225 29.7055 149.225 30.5277C149.225 32.2505 151.436 33.0489 152.818 33.28V33.3483C151.139 34.0101 148.339 35.3022 148.339 37.3612C148.339 40.1451 151.895 40.9434 154.038 40.9434C158.026 40.9434 165.404 38.6533 165.404 33.8105C165.404 29.8438 161.085 30.0113 157.509 30.15C154.98 30.248 152.823 30.3317 152.823 28.9309C152.823 28.4648 153.169 28.0033 153.456 27.6191L153.516 27.539C154.272 27.6756 155.028 27.8069 155.821 27.8069C159.085 27.8069 162.442 25.8477 162.442 22.2655C162.442 21.404 162.276 20.8053 161.817 20.0752L165.925 20.2742V20.2747H165.936ZM154.241 33.3168C153.219 33.8158 152.234 34.8768 152.234 36.0376C152.234 38.2594 155.263 39.0578 157.01 39.0578C159.085 39.0578 162.312 38.2594 162.312 35.7067C162.312 33.4848 160.466 33.1855 158.621 33.1855L154.241 33.3168ZM156.087 26.7511C153.949 26.7511 153.157 23.8937 153.157 22.2024C153.157 20.7737 153.746 18.4521 155.591 18.4521C157.802 18.4521 158.558 21.2727 158.558 23.0008C158.558 24.5293 157.995 26.7511 156.087 26.7511Z" fill="#00447C"/>
<path fill-rule="evenodd" clip-rule="evenodd" d="M175.925 30.097C171.942 30.097 169.898 26.6828 169.997 23.0638H179.747C179.617 19.5131 177.609 17.3911 173.918 17.3911C169.669 17.3911 166.243 21.2727 166.243 25.3539C166.243 29.6663 169.408 32.9859 173.558 32.9859C176.457 32.9859 178.762 31.0267 180.342 28.8048L179.518 28.2061C178.496 29.3669 177.505 30.097 175.925 30.097ZM173.225 18.5887C174.966 18.5887 175.493 20.3798 175.659 21.7717L170.195 21.9398C170.524 20.4481 171.379 18.5887 173.225 18.5887Z" fill="#00447C"/>
<path d="M189.289 25.1543C189.289 29.6663 189.09 31.1947 194.393 31.5939V32.5236H180.592V31.5939C184.513 30.9321 184.94 31.1632 184.94 25.1543V16.3301C184.94 11.3507 184.643 11.4505 180.592 10.8885V9.95879H190.837C193.934 9.95879 200.556 9.95879 200.556 15.8626C200.556 20.9051 195.451 22.3022 191.432 23.0954L191.202 22.1341C193.934 21.404 195.613 19.6812 195.613 16.724C195.613 12.9055 192.944 11.2824 189.289 11.2824V25.1543Z" fill="#00447C"/>
<path fill-rule="evenodd" clip-rule="evenodd" d="M209.649 17.3911C204.941 17.3911 200.89 20.4796 200.89 25.3539C200.89 30.1968 205.04 32.9859 209.581 32.9859C214.196 32.9859 218.148 29.9026 218.148 25.1228C218.148 20.4428 214.164 17.3911 209.649 17.3911ZM209.383 18.5834C212.678 18.5834 213.799 22.7644 213.799 25.5535C213.799 27.9434 212.944 31.7935 209.842 31.7883C206.515 31.7883 205.233 27.644 205.233 24.9547C205.233 22.4335 206.453 18.5834 209.383 18.5834Z" fill="#00447C"/>
<path fill-rule="evenodd" clip-rule="evenodd" d="M220.791 11.7814C220.791 13.0788 221.876 14.1398 223.195 14.1398C224.514 14.1398 225.599 13.0788 225.599 11.7814C225.599 10.484 224.514 9.39151 223.195 9.39151C221.876 9.39151 220.791 10.484 220.791 11.7814ZM221.18 21.3445C221.386 21.6785 221.386 22.1395 221.386 23.2319H221.381V28.3426C221.381 30.9636 221.381 31.0634 218.878 31.7253V32.5236H227.804V31.7253C226.544 31.3647 225.91 31.1991 225.592 30.7889C225.27 30.3744 225.27 29.7102 225.27 28.3426V21.6719L225.401 17.6905L224.744 17.1915L219.41 19.4501V19.9806C220.456 20.7537 220.948 20.9688 221.18 21.3445Z" fill="#00447C"/>
<path d="M235.291 28.3374C235.291 31.0582 235.291 30.9952 237.596 31.72V32.5184H228.899V31.72C231.402 31.0582 231.402 30.9584 231.402 28.3374V23.2267C231.402 20.905 231.402 21.4356 229.426 19.9754V19.4448L234.759 17.1863L235.416 17.6853L235.051 19.7758C237.027 18.4469 238.972 17.3859 241.047 17.3859C242.33 17.3859 243.748 18.0844 244.504 19.1455C245.427 20.4376 245.359 22.1657 245.359 23.6941V28.3374C245.359 30.9584 245.359 31.0582 247.862 31.72V32.5184H239.165V31.72C241.47 30.9899 241.47 31.0582 241.47 28.3374V24.2562C241.47 21.6352 240.875 19.6444 237.747 19.6444C236.855 19.6444 236.037 19.9754 235.276 20.4061V28.3374H235.291Z" fill="#00447C"/>
<path d="M259.578 31.7568C258.623 32.0877 257.602 32.3871 256.58 32.6182C255.526 32.8493 254.505 32.9806 253.451 32.9806C250.224 32.9806 250.224 30.5907 250.224 28.0065V19.9123H247.69V19.1139L253.488 14.0715H254.113V18.0844H259.583V19.9123H254.108V25.7164C254.108 29.4667 254.009 30.8586 258.29 30.8586H259.572V31.7568H259.578Z" fill="#00447C"/>
<path d="M48.6928 32.029L60.7473 11.0795C54.3394 4.41618 45.335 0.271123 35.3608 0.271123C33.7132 0.271123 32.0917 0.385829 30.5015 0.604813L48.6928 32.029Z" fill="#ECD925"/>
<path d="M45.0117 45.3349H69.1886C70.0958 42.2118 70.5807 38.9114 70.5807 35.4963C70.5807 27.3261 67.7965 19.8076 63.13 13.8325L45.0117 45.3349Z" fill="#EEE04A"/>
<path d="M31.7632 48.7813L43.9637 69.663C54.8973 66.9152 63.7974 59.0631 67.9894 48.7813H31.7632Z" fill="#F0E77B"/>
<path d="M39.0262 22.2112L26.9144 1.29305C15.9078 3.99906 6.93467 11.8825 2.72705 22.2112H39.0262Z" fill="#E0CC00"/>
<path d="M22.0443 38.9844L10.021 59.9755C16.4289 66.6024 25.4072 70.7266 35.3501 70.7266C37.0551 70.7266 38.734 70.6015 40.3763 70.3668L22.0443 38.9844Z" fill="#F0E78F"/>
<path d="M25.7099 25.6576H1.52785C0.620635 28.7807 0.135742 32.0811 0.135742 35.4963C0.135742 43.6977 2.93561 51.2422 7.63334 57.2278L25.7099 25.6576Z" fill="#F0EA9B"/>
</svg>
